# xmcd CD database file
#
# Track frame offsets:
#	150
#	12952
#	25772
#	30018
#	54616
#	72026
#	84322
#	99606
#	109702
#	123540
#	135276
#	148679
#	161777
#	180466
#	198789
#	207567
#
# Disc length: 2801 seconds
#
# Revision: 0
# Processed by: cddbd v1.5.2PL0 Copyright (c) Steve Scherf et al.
# Submitted via: CDex 1.51
#
DISCID=cd0aef10
DTITLE=Jimmy Martin - Don't Cry To Me
DYEAR=2004
DGENRE=Country
TTITLE0=On And On
TTITLE1=Ocean Of Diamonds
TTITLE2=John Henry
TTITLE3=Homesick
TTITLE4=Sophronie
TTITLE5=Foggy Old London
TTITLE6=Hit Parade Of Love
TTITLE7=Who'll Sing For Me
TTITLE8=I Like To Hear Em Preach It
TTITLE9=Don't Cry To Me
TTITLE10=Poor Ellen Smith
TTITLE11=Losing You
TTITLE12=You Don't Know My Mind
TTITLE13=Free Born Man 
TTITLE14=Brakeman's Blues
TTITLE15=Time Has Made A Change
EXTD=YEAR: 2004
EXTT0=
EXTT1=
EXTT2=
EXTT3=
EXTT4=
EXTT5=
EXTT6=
EXTT7=
EXTT8=
EXTT9=
EXTT10=
EXTT11=
EXTT12=
EXTT13=
EXTT14=
EXTT15=
PLAYORDER=
